<svg width="215" height="68" viewBox="0 0 215 68" fill="none" xmlns="http://www.w3.org/2000/svg">
<path d="M44.0312 17.6367V40.3125H38.9688V13.9805H43.6621L44.0312 17.6367ZM56.0723 23.2793V23.6484C56.0723 25.0312 55.9082 26.3145 55.5801 27.498C55.2637 28.6816 54.7949 29.7129 54.1738 30.5918C53.5527 31.459 52.7793 32.1387 51.8535 32.6309C50.9395 33.1113 49.8848 33.3516 48.6895 33.3516C47.5293 33.3516 46.5215 33.1172 45.666 32.6484C44.8105 32.1797 44.0898 31.5234 43.5039 30.6797C42.9297 29.8242 42.4668 28.834 42.1152 27.709C41.7637 26.584 41.4941 25.377 41.3066 24.0879V23.1211C41.4941 21.7383 41.7637 20.4727 42.1152 19.3242C42.4668 18.1641 42.9297 17.1621 43.5039 16.3184C44.0898 15.4629 44.8047 14.8008 45.6484 14.332C46.5039 13.8633 47.5059 13.6289 48.6543 13.6289C49.8613 13.6289 50.9219 13.8574 51.8359 14.3145C52.7617 14.7715 53.5352 15.4277 54.1562 16.2832C54.7891 17.1387 55.2637 18.1582 55.5801 19.3418C55.9082 20.5254 56.0723 21.8379 56.0723 23.2793ZM50.9922 23.6484V23.2793C50.9922 22.4707 50.9219 21.7266 50.7812 21.0469C50.6523 20.3555 50.4414 19.752 50.1484 19.2363C49.8672 18.7207 49.4922 18.3223 49.0234 18.041C48.5664 17.748 48.0098 17.6016 47.3535 17.6016C46.6621 17.6016 46.0703 17.7129 45.5781 17.9355C45.0977 18.1582 44.7051 18.4805 44.4004 18.9023C44.0957 19.3242 43.8672 19.8281 43.7148 20.4141C43.5625 21 43.4688 21.6621 43.4336 22.4004V24.8438C43.4922 25.7109 43.6562 26.4902 43.9258 27.1816C44.1953 27.8613 44.6113 28.4004 45.1738 28.7988C45.7363 29.1973 46.4746 29.3965 47.3887 29.3965C48.0566 29.3965 48.6191 29.25 49.0762 28.957C49.5332 28.6523 49.9023 28.2363 50.1836 27.709C50.4766 27.1816 50.6816 26.5723 50.7988 25.8809C50.9277 25.1895 50.9922 24.4453 50.9922 23.6484ZM69.4844 28.7109V20.2383C69.4844 19.6289 69.3848 19.1074 69.1855 18.6738C68.9863 18.2285 68.6758 17.8828 68.2539 17.6367C67.8438 17.3906 67.3105 17.2676 66.6543 17.2676C66.0918 17.2676 65.6055 17.3672 65.1953 17.5664C64.7852 17.7539 64.4688 18.0293 64.2461 18.3926C64.0234 18.7441 63.9121 19.1602 63.9121 19.6406H58.8496C58.8496 18.832 59.0371 18.0645 59.4121 17.3379C59.7871 16.6113 60.332 15.9727 61.0469 15.4219C61.7617 14.8594 62.6113 14.4199 63.5957 14.1035C64.5918 13.7871 65.7051 13.6289 66.9355 13.6289C68.4121 13.6289 69.7246 13.875 70.873 14.3672C72.0215 14.8594 72.9238 15.5977 73.5801 16.582C74.248 17.5664 74.582 18.7969 74.582 20.2734V28.4121C74.582 29.4551 74.6465 30.3105 74.7754 30.9785C74.9043 31.6348 75.0918 32.209 75.3379 32.7012V33H70.2227C69.9766 32.4844 69.7891 31.8398 69.6602 31.0664C69.543 30.2812 69.4844 29.4961 69.4844 28.7109ZM70.1523 21.416L70.1875 24.2812H67.3574C66.6895 24.2812 66.1094 24.3574 65.6172 24.5098C65.125 24.6621 64.7207 24.8789 64.4043 25.1602C64.0879 25.4297 63.8535 25.7461 63.7012 26.1094C63.5605 26.4727 63.4902 26.8711 63.4902 27.3047C63.4902 27.7383 63.5898 28.1309 63.7891 28.4824C63.9883 28.8223 64.2754 29.0918 64.6504 29.291C65.0254 29.4785 65.4648 29.5723 65.9688 29.5723C66.7305 29.5723 67.3926 29.4199 67.9551 29.1152C68.5176 28.8105 68.9512 28.4355 69.2559 27.9902C69.5723 27.5449 69.7363 27.123 69.748 26.7246L71.084 28.8691C70.8965 29.3496 70.6387 29.8477 70.3105 30.3633C69.9941 30.8789 69.5898 31.3652 69.0977 31.8223C68.6055 32.2676 68.0137 32.6367 67.3223 32.9297C66.6309 33.2109 65.8105 33.3516 64.8613 33.3516C63.6543 33.3516 62.5586 33.1113 61.5742 32.6309C60.6016 32.1387 59.8281 31.4648 59.2539 30.6094C58.6914 29.7422 58.4102 28.7578 58.4102 27.6562C58.4102 26.6602 58.5977 25.7754 58.9727 25.002C59.3477 24.2285 59.8984 23.5781 60.625 23.0508C61.3633 22.5117 62.2832 22.1074 63.3848 21.8379C64.4863 21.5566 65.7637 21.416 67.2168 21.416H70.1523ZM88.7676 27.7441C88.7676 27.3809 88.6621 27.0527 88.4512 26.7598C88.2402 26.4668 87.8477 26.1973 87.2734 25.9512C86.7109 25.6934 85.8965 25.459 84.8301 25.248C83.8691 25.0371 82.9727 24.7734 82.1406 24.457C81.3203 24.1289 80.6055 23.7363 79.9961 23.2793C79.3984 22.8223 78.9297 22.2832 78.5898 21.6621C78.25 21.0293 78.0801 20.3086 78.0801 19.5C78.0801 18.7031 78.25 17.9531 78.5898 17.25C78.9414 16.5469 79.4395 15.9258 80.084 15.3867C80.7402 14.8359 81.5371 14.4082 82.4746 14.1035C83.4238 13.7871 84.4902 13.6289 85.6738 13.6289C87.3262 13.6289 88.7441 13.8926 89.9277 14.4199C91.123 14.9473 92.0371 15.6738 92.6699 16.5996C93.3145 17.5137 93.6367 18.5566 93.6367 19.7285H88.5742C88.5742 19.2363 88.4688 18.7969 88.2578 18.4102C88.0586 18.0117 87.7422 17.7012 87.3086 17.4785C86.8867 17.2441 86.3359 17.127 85.6562 17.127C85.0938 17.127 84.6074 17.2266 84.1973 17.4258C83.7871 17.6133 83.4707 17.8711 83.248 18.1992C83.0371 18.5156 82.9316 18.8672 82.9316 19.2539C82.9316 19.5469 82.9902 19.8105 83.1074 20.0449C83.2363 20.2676 83.4414 20.4727 83.7227 20.6602C84.0039 20.8477 84.3672 21.0234 84.8125 21.1875C85.2695 21.3398 85.832 21.4805 86.5 21.6094C87.8711 21.8906 89.0957 22.2598 90.1738 22.7168C91.252 23.1621 92.1074 23.7715 92.7402 24.5449C93.373 25.3066 93.6895 26.3086 93.6895 27.5508C93.6895 28.3945 93.502 29.168 93.127 29.8711C92.752 30.5742 92.2129 31.1895 91.5098 31.7168C90.8066 32.2324 89.9629 32.6367 88.9785 32.9297C88.0059 33.2109 86.9102 33.3516 85.6914 33.3516C83.9219 33.3516 82.4219 33.0352 81.1914 32.4023C79.9727 31.7695 79.0469 30.9668 78.4141 29.9941C77.793 29.0098 77.4824 28.002 77.4824 26.9707H82.2812C82.3047 27.6621 82.4805 28.2188 82.8086 28.6406C83.1484 29.0625 83.5762 29.3672 84.0918 29.5547C84.6191 29.7422 85.1875 29.8359 85.7969 29.8359C86.4531 29.8359 86.998 29.748 87.4316 29.5723C87.8652 29.3848 88.1934 29.1387 88.416 28.834C88.6504 28.5176 88.7676 28.1543 88.7676 27.7441ZM107.26 27.7441C107.26 27.3809 107.154 27.0527 106.943 26.7598C106.732 26.4668 106.34 26.1973 105.766 25.9512C105.203 25.6934 104.389 25.459 103.322 25.248C102.361 25.0371 101.465 24.7734 100.633 24.457C99.8125 24.1289 99.0977 23.7363 98.4883 23.2793C97.8906 22.8223 97.4219 22.2832 97.082 21.6621C96.7422 21.0293 96.5723 20.3086 96.5723 19.5C96.5723 18.7031 96.7422 17.9531 97.082 17.25C97.4336 16.5469 97.9316 15.9258 98.5762 15.3867C99.2324 14.8359 100.029 14.4082 100.967 14.1035C101.916 13.7871 102.982 13.6289 104.166 13.6289C105.818 13.6289 107.236 13.8926 108.42 14.4199C109.615 14.9473 110.529 15.6738 111.162 16.5996C111.807 17.5137 112.129 18.5566 112.129 19.7285H107.066C107.066 19.2363 106.961 18.7969 106.75 18.4102C106.551 18.0117 106.234 17.7012 105.801 17.4785C105.379 17.2441 104.828 17.127 104.148 17.127C103.586 17.127 103.1 17.2266 102.689 17.4258C102.279 17.6133 101.963 17.8711 101.74 18.1992C101.529 18.5156 101.424 18.8672 101.424 19.2539C101.424 19.5469 101.482 19.8105 101.6 20.0449C101.729 20.2676 101.934 20.4727 102.215 20.6602C102.496 20.8477 102.859 21.0234 103.305 21.1875C103.762 21.3398 104.324 21.4805 104.992 21.6094C106.363 21.8906 107.588 22.2598 108.666 22.7168C109.744 23.1621 110.6 23.7715 111.232 24.5449C111.865 25.3066 112.182 26.3086 112.182 27.5508C112.182 28.3945 111.994 29.168 111.619 29.8711C111.244 30.5742 110.705 31.1895 110.002 31.7168C109.299 32.2324 108.455 32.6367 107.471 32.9297C106.498 33.2109 105.402 33.3516 104.184 33.3516C102.414 33.3516 100.914 33.0352 99.6836 32.4023C98.4648 31.7695 97.5391 30.9668 96.9062 29.9941C96.2852 29.0098 95.9746 28.002 95.9746 26.9707H100.773C100.797 27.6621 100.973 28.2188 101.301 28.6406C101.641 29.0625 102.068 29.3672 102.584 29.5547C103.111 29.7422 103.68 29.8359 104.289 29.8359C104.945 29.8359 105.49 29.748 105.924 29.5723C106.357 29.3848 106.686 29.1387 106.908 28.834C107.143 28.5176 107.26 28.1543 107.26 27.7441ZM117.824 6V33H116.418V6H117.824ZM129.936 13.9805L120.689 22.7695L117.42 25.7402L117.086 24.5098L119.951 21.6445L128.072 13.9805H129.936ZM128.811 33L120.162 22.6289L120.988 21.4688L130.533 33H128.811ZM135.068 18.041V33H133.68V13.9805H135.051L135.068 18.041ZM134.805 22.0312L134.119 21.2227C134.225 20.2148 134.471 19.2539 134.857 18.3398C135.256 17.4258 135.777 16.6172 136.422 15.9141C137.078 15.2109 137.84 14.6543 138.707 14.2441C139.586 13.834 140.553 13.6289 141.607 13.6289C142.557 13.6289 143.406 13.7637 144.156 14.0332C144.906 14.291 145.539 14.7012 146.055 15.2637C146.582 15.8262 146.98 16.5527 147.25 17.4434C147.52 18.3223 147.654 19.3945 147.654 20.6602V33H146.266V20.6602C146.266 19.1602 146.061 18 145.65 17.1797C145.24 16.3477 144.666 15.7617 143.928 15.4219C143.201 15.082 142.352 14.9121 141.379 14.9121C140.254 14.9121 139.281 15.1641 138.461 15.668C137.652 16.1602 136.984 16.7871 136.457 17.5488C135.93 18.2988 135.525 19.0781 135.244 19.8867C134.975 20.6953 134.828 21.4102 134.805 22.0312ZM155.072 13.9805V33H153.666V13.9805H155.072ZM153.227 8.21484C153.227 7.89844 153.332 7.62891 153.543 7.40625C153.766 7.17188 154.047 7.05469 154.387 7.05469C154.715 7.05469 154.99 7.17188 155.213 7.40625C155.436 7.62891 155.547 7.89844 155.547 8.21484C155.547 8.53125 155.436 8.80078 155.213 9.02344C154.99 9.23438 154.715 9.33984 154.387 9.33984C154.047 9.33984 153.766 9.23438 153.543 9.02344C153.332 8.80078 153.227 8.53125 153.227 8.21484ZM173.775 13.9805H175.129V32.7012C175.129 34.3301 174.83 35.7363 174.232 36.9199C173.635 38.1152 172.785 39.0293 171.684 39.6621C170.594 40.3066 169.287 40.6289 167.764 40.6289C166.896 40.6289 166.064 40.5 165.268 40.2422C164.482 39.9844 163.756 39.6094 163.088 39.1172C162.432 38.6367 161.863 38.0684 161.383 37.4121L162.244 36.5332C162.994 37.459 163.809 38.1621 164.688 38.6426C165.578 39.123 166.58 39.3633 167.693 39.3633C169.006 39.3633 170.107 39.0938 170.998 38.5547C171.889 38.0156 172.562 37.248 173.02 36.252C173.477 35.2676 173.705 34.0957 173.705 32.7363V18.1641L173.775 13.9805ZM160.258 23.666V23.2969C160.258 21.8086 160.422 20.4727 160.75 19.2891C161.078 18.0938 161.553 17.0801 162.174 16.248C162.795 15.4043 163.551 14.7598 164.441 14.3145C165.344 13.8574 166.363 13.6289 167.5 13.6289C168.566 13.6289 169.51 13.7988 170.33 14.1387C171.162 14.4668 171.883 14.9414 172.492 15.5625C173.113 16.1719 173.617 16.8926 174.004 17.7246C174.402 18.5449 174.701 19.4531 174.9 20.4492V27.0059C174.748 27.8848 174.484 28.7109 174.109 29.4844C173.734 30.2461 173.236 30.9199 172.615 31.5059C171.994 32.0801 171.256 32.5312 170.4 32.8594C169.545 33.1875 168.566 33.3516 167.465 33.3516C166.34 33.3516 165.332 33.1172 164.441 32.6484C163.551 32.1797 162.795 31.5176 162.174 30.6621C161.553 29.8066 161.078 28.7871 160.75 27.6035C160.422 26.4199 160.258 25.1074 160.258 23.666ZM161.682 23.2969V23.666C161.682 24.873 161.799 25.9863 162.033 27.0059C162.279 28.0254 162.643 28.9102 163.123 29.6602C163.615 30.4102 164.236 30.9961 164.986 31.418C165.736 31.8398 166.609 32.0508 167.605 32.0508C168.895 32.0508 169.979 31.8164 170.857 31.3477C171.736 30.8789 172.439 30.2578 172.967 29.4844C173.494 28.7109 173.863 27.8555 174.074 26.918V20.7129C173.945 20.1152 173.746 19.4824 173.477 18.8145C173.207 18.1348 172.826 17.502 172.334 16.916C171.854 16.3301 171.232 15.8555 170.471 15.4922C169.709 15.1172 168.766 14.9297 167.641 14.9297C166.633 14.9297 165.748 15.1406 164.986 15.5625C164.236 15.9844 163.615 16.5703 163.123 17.3203C162.643 18.0703 162.279 18.9551 162.033 19.9746C161.799 20.9941 161.682 22.1016 161.682 23.2969ZM182.354 6V33H180.965V6H182.354ZM182.09 22.0312L181.404 21.2227C181.51 20.2148 181.756 19.2539 182.143 18.3398C182.541 17.4258 183.062 16.6172 183.707 15.9141C184.363 15.2109 185.125 14.6543 185.992 14.2441C186.871 13.834 187.838 13.6289 188.893 13.6289C189.842 13.6289 190.691 13.7637 191.441 14.0332C192.191 14.291 192.824 14.7012 193.34 15.2637C193.867 15.8262 194.266 16.5527 194.535 17.4434C194.805 18.3223 194.939 19.3945 194.939 20.6602V33H193.551V20.6602C193.551 19.1602 193.346 18 192.936 17.1797C192.525 16.3477 191.951 15.7617 191.213 15.4219C190.486 15.082 189.637 14.9121 188.664 14.9121C187.539 14.9121 186.566 15.1641 185.746 15.668C184.938 16.1602 184.27 16.7871 183.742 17.5488C183.215 18.2988 182.811 19.0781 182.529 19.8867C182.26 20.6953 182.113 21.4102 182.09 22.0312ZM207.438 13.9805V15.2461H198.332V13.9805H207.438ZM201.848 8.95312H203.254V28.4121C203.254 29.4316 203.377 30.2051 203.623 30.7324C203.881 31.248 204.215 31.5996 204.625 31.7871C205.047 31.9629 205.498 32.0508 205.979 32.0508C206.318 32.0508 206.629 32.0332 206.91 31.998C207.203 31.9629 207.496 31.9219 207.789 31.875L207.912 33.1055C207.654 33.1875 207.32 33.2461 206.91 33.2812C206.5 33.3281 206.137 33.3516 205.82 33.3516C205.023 33.3516 204.326 33.2051 203.729 32.9121C203.131 32.6191 202.668 32.1152 202.34 31.4004C202.012 30.6738 201.848 29.6777 201.848 28.4121V8.95312Z" fill="white"/>
<path d="M31.9109 11.6352C27.416 9.55297 19.1698 6.01653 16.7571 6C14.3444 6 6.06515 9.55297 1.55371 11.6352C0.611759 12.0648 -0.0162069 13.0729 0.000318497 14.1305C0.0829456 17.9314 0.578708 23.5335 2.56176 28.5242C6.85837 39.3483 14.394 44.4381 16.5092 44.9669C16.5918 44.9835 16.6579 45 16.7406 45C16.8232 45 16.9058 45 16.9719 44.9669C19.3846 44.3225 26.8211 38.6873 30.8698 28.5242C32.8529 23.55 33.3652 17.9314 33.4478 14.0975C33.4808 13.172 32.7537 12.0153 31.9109 11.6352ZM29.1677 27.8466C25.3999 37.3157 18.641 42.3229 16.7571 43.0996C14.7906 42.3559 8.21345 37.6627 4.32998 27.8466C2.44608 23.1203 1.95032 17.7496 1.88422 14.0975C1.88422 13.7339 2.11557 13.4364 2.36345 13.3373C9.07278 10.2305 15.2863 7.86737 16.7736 7.86737C18.2774 7.86737 24.4579 10.214 31.1342 13.3208C31.2995 13.4034 31.5969 13.8661 31.5969 14.0809C31.5308 17.7496 31.0351 23.1203 29.1677 27.8466Z" fill="white"/>
</svg>
